<svg width="40" height="40" viewBox="0 0 40 40" fill="none" xmlns="http://www.w3.org/2000/svg">
<path d="M37.8334 0.946289H2.21826C1.51868 0.946289 0.946289 1.51868 0.946289 2.21826V37.8334C0.946289 38.533 1.51868 39.1054 2.21826 39.1054H37.8334C38.533 39.1054 39.1054 38.533 39.1054 37.8334V2.21826C39.1054 1.51868 38.533 0.946289 37.8334 0.946289ZM12.6739 19.1927C13.1127 18.6457 13.914 18.5567 14.461 18.9955L18.7539 22.4299V9.17593C18.7539 8.47635 19.3263 7.90396 20.0258 7.90396C20.7254 7.90396 21.2978 8.47635 21.2978 9.17593V22.4299L25.5907 18.9955C26.1504 18.5758 26.9517 18.6839 27.3715 19.2499C27.7721 19.7842 27.6895 20.5473 27.1807 20.9798L20.8844 26.0168L20.8208 26.0677C20.7763 26.1059 20.7254 26.1376 20.6745 26.1694C20.6046 26.214 20.5283 26.2521 20.4456 26.2776L20.2357 26.3284C20.0958 26.3539 19.9559 26.3539 19.816 26.3284L19.6061 26.2776L19.4725 26.2203L19.3899 26.1694C19.339 26.1376 19.2881 26.1059 19.2436 26.0677L19.18 26.0168L12.8837 20.9798C12.3304 20.5473 12.235 19.746 12.6739 19.1927ZM28.9296 32.1477H11.122C10.4225 32.1477 9.85008 31.5753 9.85008 30.8757C9.85008 30.1762 10.4225 29.6038 11.122 29.6038H28.9296C29.6292 29.6038 30.2016 30.1762 30.2016 30.8757C30.2016 31.5753 29.6292 32.1477 28.9296 32.1477Z" fill="white"/>
</svg>
