<svg width="35" height="35" viewBox="0 0 35 35" fill="none" xmlns="http://www.w3.org/2000/svg">
<path d="M33.8333 0H1.16667C0.525 0 0 0.525 0 1.16667V33.8333C0 34.475 0.525 35 1.16667 35H33.8333C34.475 35 35 34.475 35 33.8333V1.16667C35 0.525 34.475 0 33.8333 0ZM10.7567 16.7358C11.1592 16.2342 11.8942 16.1525 12.3958 16.555L16.3333 19.705V7.54833C16.3333 6.90667 16.8583 6.38167 17.5 6.38167C18.1417 6.38167 18.6667 6.90667 18.6667 7.54833V19.705L22.6042 16.555C23.1175 16.17 23.8525 16.2692 24.2375 16.7883C24.605 17.2783 24.5292 17.9783 24.0625 18.375L18.2875 22.995L18.2292 23.0417C18.1883 23.0767 18.1417 23.1058 18.095 23.135C18.0308 23.1758 17.9608 23.2108 17.885 23.2342L17.6925 23.2808C17.5642 23.3042 17.4358 23.3042 17.3075 23.2808L17.115 23.2342L16.9925 23.1817L16.9167 23.135C16.87 23.1058 16.8233 23.0767 16.7825 23.0417L16.7242 22.995L10.9492 18.375C10.4417 17.9783 10.3542 17.2433 10.7567 16.7358ZM25.6667 28.6183H9.33333C8.69167 28.6183 8.16667 28.0933 8.16667 27.4517C8.16667 26.81 8.69167 26.285 9.33333 26.285H25.6667C26.3083 26.285 26.8333 26.81 26.8333 27.4517C26.8333 28.0933 26.3083 28.6183 25.6667 28.6183Z" fill="#0E9046"/>
</svg>
