<svg width="20" height="20" viewBox="0 0 20 20" fill="none" xmlns="http://www.w3.org/2000/svg">
<path d="M9.54163 18.0833C14.259 18.0833 18.0833 14.259 18.0833 9.54163C18.0833 4.82422 14.259 1 9.54163 1C4.82422 1 1 4.82422 1 9.54163C1 14.259 4.82422 18.0833 9.54163 18.0833Z" stroke="#0E9046" stroke-width="2" stroke-linecap="round" stroke-linejoin="round"/>
<path d="M7.05591 6.97973C7.25673 6.40886 7.6531 5.92749 8.17482 5.62087C8.69655 5.31425 9.30995 5.20216 9.9064 5.30447C10.5028 5.40677 11.0438 5.71687 11.4336 6.17983C11.8233 6.64279 12.0366 7.22873 12.0357 7.83389C12.0357 9.54221 9.47319 10.3964 9.47319 10.3964" stroke="#0E9046" stroke-width="2" stroke-linecap="round" stroke-linejoin="round"/>
<path d="M9.5415 13.8125H9.55069" stroke="#0E9046" stroke-width="2" stroke-linecap="round" stroke-linejoin="round"/>
</svg>
