<svg width="27" height="27" viewBox="0 0 27 27" fill="none" xmlns="http://www.w3.org/2000/svg">
<path opacity="0.94" d="M0.264355 10.4669V10.6669H0.464355H2.3458H2.5458V10.4669V3.03521C2.5458 2.76535 2.76535 2.5458 3.03521 2.5458H10.2747H10.4747V2.3458V0.464355V0.264355H10.2747H3.03521C1.50695 0.264355 0.264355 1.50695 0.264355 3.03521V10.4669Z" fill="#3B3B3B" stroke="#474747" stroke-width="0.4"/>
<path opacity="0.94" d="M16.7253 0.264355H16.5253V0.464355V2.3458V2.5458H16.7253H23.9649C24.2347 2.5458 24.4543 2.76535 24.4543 3.03521V10.4669V10.6669H24.6543H26.5357H26.7357V10.4669V3.03521C26.7357 1.50695 25.4931 0.264355 23.9649 0.264355H16.7253Z" fill="#3B3B3B" stroke="#474747" stroke-width="0.4"/>
<path opacity="0.94" d="M16.7253 24.4542H16.5253V24.6542V26.5357V26.7357H16.7253H23.9649C25.4931 26.7357 26.7357 25.4931 26.7357 23.9648V16.9175V16.7175H26.5357H24.6543H24.4543V16.9175V23.9648C24.4543 24.2347 24.2347 24.4542 23.9649 24.4542H16.7253Z" fill="#3B3B3B" stroke="#474747" stroke-width="0.4"/>
<path opacity="0.94" d="M2.5458 16.9175V16.7175H2.3458H0.464355H0.264355V16.9175V23.9648C0.264355 25.4931 1.50695 26.7357 3.03521 26.7357H10.2747H10.4747V26.5357V24.6542V24.4542H10.2747H3.03521C2.76535 24.4542 2.5458 24.2347 2.5458 23.9648V16.9175Z" fill="#3B3B3B" stroke="#474747" stroke-width="0.4"/>
</svg>
